<svg width="82" height="78" viewBox="0 0 82 78" fill="none" xmlns="http://www.w3.org/2000/svg">
<path d="M28.6834 25.6586C26.9785 25.1504 25.1512 25.3731 23.6026 26.2779C22.3084 27.0427 21.3022 28.2372 20.3218 29.4084L8.35537 43.707C8.22457 43.8633 8.08717 44.0353 8.07277 44.2425C8.03137 44.8341 8.86777 44.9475 9.41017 44.7831C10.9354 44.3226 12.3298 43.5035 13.7692 42.8055C18.0022 40.7618 22.6432 39.7865 26.8888 37.7737C28.0954 37.2017 29.2888 36.5307 30.2098 35.5341C31.3942 34.2545 32.026 32.5533 32.4658 30.8593C32.6326 30.2173 32.9764 29.3939 32.5954 28.7765C32.1734 28.1086 31.6606 27.5092 31.0732 26.9974C30.3728 26.3832 29.5592 25.9274 28.6834 25.6586Z" fill="#BD0000"/>
<path d="M52.055 48.519C52.9346 49.9283 53.7014 51.6003 53.345 53.244C53.0336 54.6779 51.9386 55.757 50.885 56.7285C45.7616 61.4642 40.3812 65.8843 34.771 69.9667C34.4458 70.2036 34.0353 70.4487 33.6777 70.271C33.1977 70.0322 33.2644 69.3014 33.4246 68.771C35.128 63.1249 40.2339 57.7094 41.6198 51.9682C41.9798 50.4827 40.7955 49.4961 41.5263 48.17C42.4016 46.583 43.9442 45.5492 45.5846 45.02C46.0136 44.8858 46.4492 44.7787 46.8902 44.6993C47.2352 44.6363 47.5898 44.5027 47.9414 44.4901C48.7214 44.4618 49.4774 45.3167 49.991 45.8377C50.7848 46.6359 51.4544 47.557 52.055 48.519Z" fill="#BD0000"/>
<path d="M76.3496 0.769973C77.7806 0.114773 79.5782 -0.474907 80.7812 0.569003C81.3074 1.02512 81.6002 1.72568 81.7046 2.4338C81.992 4.37798 80.9972 6.25286 80.0066 7.92299C73.4384 18.9925 65.4554 29.064 56.2808 37.8564C52.6562 41.3283 48.8474 44.5974 45.4688 48.3339C43.6088 50.3927 41.5947 52.7439 38.8995 52.9739C36.7347 53.1584 34.7049 51.8865 33.0117 50.4583C30.5242 48.3572 28.394 45.829 26.7117 42.9808C25.5993 41.0958 24.6645 38.8858 25.1163 36.7173C25.4931 34.913 26.7465 33.552 28.0407 32.3903C29.2689 31.284 30.5487 30.2704 31.8489 29.2624C33.5475 27.9394 35.2089 26.5578 36.9069 25.2348C38.6049 23.9118 40.3179 22.614 42.047 21.3376C43.7762 20.0612 45.5288 18.7962 47.2988 17.5651C49.0688 16.3341 50.8352 15.1384 52.6286 13.966C54.422 12.7935 56.2286 11.6513 58.0562 10.5381C59.8838 9.42491 61.7372 8.33312 63.6032 7.28417C65.4692 6.23522 67.3526 5.21336 69.2522 4.23119C71.1518 3.24902 73.0562 2.30906 74.9828 1.40438C75.4376 1.19056 75.8936 0.979133 76.3496 0.769973Z" fill="#CCBD22"/>
<path d="M80.057 7.94364C80.0102 7.94346 79.964 7.92878 79.925 7.90144C78.1508 6.66758 76.7162 4.965 75.767 2.96475C75.7532 2.93514 75.7448 2.90289 75.7424 2.86988C75.7406 2.83686 75.7442 2.80372 75.7544 2.77229C75.7646 2.74091 75.7802 2.71193 75.8006 2.68692C75.8216 2.66198 75.8468 2.6415 75.875 2.62676C75.9032 2.61195 75.9338 2.6032 75.965 2.60087C75.9968 2.59854 76.028 2.60276 76.058 2.61328C76.088 2.6238 76.1156 2.64037 76.1396 2.6621C76.163 2.68377 76.1828 2.71023 76.1966 2.73984C77.108 4.66103 78.4856 6.29632 80.1896 7.48122C80.2328 7.51108 80.2658 7.55474 80.2832 7.60571C80.3012 7.65674 80.3024 7.71231 80.2874 7.76428C80.2724 7.8162 80.2424 7.86174 80.2004 7.89406C80.159 7.92638 80.1086 7.94377 80.057 7.94364Z" fill="black"/>
<path d="M46.8979 30.7956C47.9143 31.7236 49.6177 31.6549 50.5633 30.6476C51.5089 29.6402 51.5503 27.8516 50.6521 26.7976C49.8469 25.8526 48.3223 25.6233 47.2321 26.1248C46.2859 26.5601 45.9679 27.5959 46.0021 28.6133C46.0303 29.4348 46.2949 30.2437 46.8979 30.7956Z" fill="#126535"/>
<path d="M56.6762 19.5867C55.8902 19.913 55.4066 20.8712 55.5524 21.7463C55.6982 22.6214 56.432 23.3377 57.2684 23.47C58.1048 23.6023 58.9868 23.167 59.459 22.4305C59.999 21.5869 59.9618 20.3515 59.3 19.6112C58.6382 18.871 57.3884 18.7815 56.6948 19.4903L56.6762 19.5867Z" fill="#126535"/>
<path d="M64.6173 13.8953C64.0221 14.2405 63.7575 15.079 63.9921 15.7493C64.2267 16.4197 64.9041 16.872 65.5839 16.867C66.2637 16.8619 66.9129 16.426 67.2567 15.8123C67.6557 15.0967 67.6029 14.0685 66.9891 13.5443C66.3291 12.9849 65.3349 13.1941 64.6059 13.647L64.6173 13.8953Z" fill="#126535"/>
<path d="M72.1656 9.5029C71.9352 9.56105 71.7318 9.70298 71.5914 9.90364C71.451 10.1042 71.3826 10.3505 71.3982 10.599C71.4144 10.8474 71.5134 11.0819 71.6778 11.261C71.8428 11.4401 72.0624 11.5522 72.2982 11.5775C72.5112 11.5954 72.7254 11.5555 72.9192 11.4616C73.4736 11.2064 73.875 10.5329 73.7034 9.92311C73.5318 9.31327 72.6834 9.0052 72.267 9.46636L72.1656 9.5029Z" fill="#126535"/>
<path d="M40.3505 32.4563C40.2882 32.4562 40.2284 32.4307 40.1837 32.3851C38.0665 30.2373 36.2945 27.7436 34.9367 25.0009C34.9222 24.9715 34.9133 24.9394 34.9106 24.9064C34.9078 24.8734 34.9113 24.8402 34.9208 24.8087C34.9303 24.7771 34.9456 24.7478 34.9659 24.7225C34.9862 24.6972 35.011 24.6762 35.039 24.661C35.067 24.6458 35.0975 24.6364 35.1289 24.6335C35.1604 24.6307 35.192 24.6343 35.222 24.6443C35.2521 24.6543 35.28 24.6704 35.3041 24.6917C35.3282 24.713 35.3482 24.7391 35.3627 24.7684C36.6968 27.4628 38.4375 29.9126 40.5173 32.0229C40.5518 32.0577 40.5755 32.1026 40.5855 32.1518C40.5955 32.201 40.5912 32.2521 40.5733 32.2987C40.5553 32.3453 40.5245 32.3852 40.4849 32.4133C40.4452 32.4414 40.3984 32.4564 40.3505 32.4563Z" fill="black"/>
<path d="M43.8369 36.1042C43.7865 36.1042 43.7373 36.0872 43.6965 36.0557C42.9669 35.5019 42.3381 34.8146 41.8413 34.0265C41.8239 33.9987 41.8119 33.9677 41.8059 33.9352C41.7999 33.9028 41.7999 33.8693 41.8065 33.8369C41.8125 33.8045 41.8251 33.7736 41.8425 33.7462C41.8599 33.7188 41.8827 33.6952 41.9091 33.6769C41.9355 33.6587 41.9649 33.6459 41.9955 33.6396C42.0267 33.6333 42.0585 33.6334 42.0891 33.64C42.1203 33.6466 42.1497 33.6595 42.1755 33.678C42.2019 33.6965 42.2241 33.7202 42.2415 33.7478C42.7071 34.4857 43.2951 35.129 43.9779 35.6475C44.0193 35.6783 44.0505 35.7224 44.0661 35.7735C44.0823 35.8239 44.0823 35.8787 44.0667 35.9297C44.0505 35.9807 44.0199 36.0248 43.9791 36.0563C43.9377 36.0872 43.8879 36.1042 43.8369 36.1042Z" fill="black"/>
<path d="M45.829 37.9885C45.787 37.9885 45.7456 37.9778 45.709 37.9564C45.439 37.7951 45.2044 37.5765 45.019 37.3151C44.9812 37.2609 44.9656 37.1935 44.9752 37.1273C44.9842 37.0618 45.0184 37.002 45.07 36.9623C45.121 36.9226 45.1852 36.9062 45.2482 36.9163C45.3112 36.9257 45.3676 36.9616 45.4054 37.0158C45.55 37.2212 45.7342 37.3932 45.9454 37.5198C45.9916 37.5469 46.0282 37.5897 46.0486 37.6414C46.069 37.6931 46.0726 37.7498 46.0588 37.8039C46.0456 37.8581 46.015 37.9054 45.973 37.9394C45.9304 37.9734 45.8788 37.9911 45.8254 37.9911L45.829 37.9885Z" fill="black"/>
<path d="M48.6569 41.1782C48.6023 41.1782 48.5495 41.1587 48.5069 41.1228C47.9375 40.6415 47.4071 40.1123 46.9205 39.5402C46.8995 39.515 46.8833 39.486 46.8731 39.4552C46.8629 39.4237 46.8587 39.3903 46.8605 39.3569C46.8623 39.3241 46.8701 39.2914 46.8839 39.2618C46.8977 39.2321 46.9169 39.2051 46.9409 39.183C46.9643 39.161 46.9919 39.1439 47.0219 39.1332C47.0519 39.1225 47.0831 39.1175 47.1149 39.12C47.1467 39.1219 47.1773 39.1301 47.2055 39.1446C47.2343 39.1591 47.2595 39.1792 47.2805 39.2044C47.7497 39.7563 48.2615 40.2666 48.8105 40.7303C48.8495 40.7631 48.8777 40.8078 48.8909 40.8582C48.9041 40.9086 48.9023 40.9621 48.8855 41.0113C48.8687 41.0604 48.8375 41.1032 48.7967 41.1329C48.7559 41.1631 48.7067 41.1789 48.6569 41.1782Z" fill="black"/>
<path d="M52.0729 43.9099C52.0189 43.9099 51.9667 43.8904 51.9241 43.8557L49.9345 42.2064C49.9099 42.1856 49.8895 42.1598 49.8739 42.1308C49.8589 42.1018 49.8487 42.0697 49.8451 42.0369C49.8415 42.0041 49.8445 41.9708 49.8529 41.9386C49.8619 41.9065 49.8763 41.8769 49.8961 41.8511C49.9159 41.8246 49.9405 41.8032 49.9681 41.7874C49.9957 41.7711 50.0263 41.761 50.0575 41.7572C50.0887 41.7534 50.1205 41.7559 50.1511 41.7654C50.1817 41.7742 50.2099 41.79 50.2345 41.8107L52.2241 43.4601C52.2631 43.4922 52.2919 43.5369 52.3057 43.5873C52.3201 43.6371 52.3189 43.6907 52.3021 43.7404C52.2859 43.7896 52.2553 43.833 52.2145 43.8633C52.1737 43.8935 52.1251 43.9099 52.0753 43.9099H52.0729Z" fill="black"/>
<path d="M21.2025 49.3733C15.7363 51.5965 10.5274 54.4624 5.67509 57.9161C5.29049 58.1895 4.89509 58.4831 4.67549 58.914C4.45589 59.3449 4.48289 59.9535 4.85549 60.2427C5.20289 60.511 5.68229 60.4134 6.11249 60.3794C6.54269 60.3453 7.07909 60.4713 7.18889 60.9092C7.27349 61.2481 7.04909 61.5783 6.83909 61.8498C4.61153 64.7383 2.50793 67.727 0.528292 70.8159C0.309892 71.1568 0.0866918 71.5171 0.0482918 71.926C0.00989178 72.3349 0.228293 72.8004 0.609893 72.8823C0.835493 72.9309 1.06529 72.8408 1.27589 72.7431C2.69009 72.0854 3.88229 71.01 5.09549 70.0026C7.25843 68.2071 9.54869 66.5874 11.9463 65.1579C12.3219 64.9336 12.8121 64.7169 13.1547 64.9954L12.3303 67.8801C12.1749 68.4238 12.0813 69.1502 12.5487 69.4362C12.9309 69.6706 13.4091 69.4173 13.7733 69.154C15.0103 68.2607 16.1268 67.1966 17.0925 65.9901C16.7115 66.5685 17.3445 67.4001 18.0141 67.4171C18.6837 67.4341 19.2615 66.9503 19.7541 66.4721C22.5045 63.8015 24.6675 60.5079 26.3331 56.9843C26.9493 55.6808 27.5091 54.3068 27.5889 52.854C27.6609 51.548 27.2109 50.4468 26.4867 49.4136C25.8441 48.4969 24.3981 48.5316 23.4465 48.6916C22.6767 48.8226 21.9285 49.079 21.2025 49.3733Z" fill="#EE86A7"/>
<path d="M10.7299 62.6102C10.3975 62.6102 10.0783 62.4735 10.0099 62.1402C9.96788 61.9323 10.0579 61.7477 10.1065 61.6488C10.8265 60.1759 12.0379 59.0658 13.2403 58.0855C15.4383 56.2944 17.8093 54.7516 20.3143 53.4808C20.8015 53.2339 21.4507 52.9422 22.1605 52.8767C22.7431 52.8225 23.2651 52.9756 23.5927 53.2956C23.715 53.416 23.811 53.5627 23.8743 53.7259C23.9376 53.8891 23.9665 54.0642 23.9593 54.2406C23.9461 55.1321 23.5033 56.1854 22.6435 57.3711C21.7225 58.6424 20.4883 59.6441 19.4035 60.4581C18.9421 60.804 18.4435 61.141 17.8549 61.141H17.8519C17.6578 61.1372 17.467 61.0881 17.2933 60.9974C17.1198 60.906 16.9678 60.775 16.8487 60.6143C16.7508 60.4802 16.6877 60.322 16.6657 60.1551C15.6769 60.2678 14.7883 60.792 13.8511 61.3451C12.9301 61.8888 11.9773 62.4508 10.9033 62.6007C10.8457 62.6077 10.7878 62.6108 10.7299 62.6102ZM20.5255 53.9351C18.0507 55.1894 15.7082 56.714 13.5367 58.483C12.3787 59.4281 11.2129 60.4934 10.5367 61.8788C10.507 61.926 10.4885 61.9802 10.4827 62.0369C10.4893 62.0703 10.6315 62.1276 10.8427 62.0999C11.8255 61.9625 12.7375 61.4245 13.6195 60.9029C14.6437 60.2981 15.7033 59.6731 16.9195 59.629C16.9576 59.6271 16.9954 59.6353 17.03 59.6517C17.0646 59.6687 17.0949 59.6939 17.1183 59.7254C17.1417 59.7569 17.1577 59.7941 17.1649 59.8331C17.172 59.8722 17.1702 59.9132 17.1595 59.9516C17.1451 60.0133 17.1448 60.0782 17.1588 60.1406C17.1728 60.2023 17.2006 60.2603 17.2399 60.3094C17.3134 60.4071 17.4061 60.4871 17.5118 60.5432C17.6174 60.5999 17.7334 60.632 17.8519 60.637C18.2977 60.637 18.7237 60.346 19.1215 60.048C20.1775 59.2573 21.3763 58.284 22.2589 57.0681C22.8061 56.3121 23.4589 55.2083 23.4763 54.2331C23.4826 54.1279 23.4667 54.022 23.4298 53.9244C23.3929 53.8261 23.3358 53.7379 23.2627 53.6661C23.0377 53.4468 22.6405 53.3397 22.1995 53.3807C21.7063 53.426 21.1885 53.5974 20.5195 53.937L20.5255 53.9351Z" fill="#126535"/>
<path d="M0.76483 77.8102C0.71749 77.8102 0.671172 77.7951 0.631812 77.7674C0.592452 77.7396 0.561732 77.7006 0.543612 77.6546C0.525432 77.6086 0.520631 77.5582 0.529811 77.5091C0.538931 77.4606 0.561671 77.4158 0.595031 77.3805C2.91337 74.9412 5.38489 72.6681 7.99303 70.5765C8.04379 70.5375 8.10697 70.5211 8.16907 70.5306C8.23123 70.54 8.28733 70.5747 8.32543 70.6269C8.36347 70.6792 8.38045 70.7454 8.37277 70.8109C8.36503 70.8764 8.33317 70.9363 8.28403 70.9772C5.69395 73.055 3.23965 75.3129 0.937631 77.7365C0.915011 77.7598 0.888012 77.7787 0.858372 77.7913C0.828672 77.8039 0.79687 77.8102 0.76483 77.8102Z" fill="black"/>
<path d="M7.19178 75.1459C7.1478 75.1459 7.10472 75.1327 7.06722 75.1088C7.02966 75.0848 6.99912 75.0508 6.9789 75.0098C6.95868 74.9689 6.9495 74.9229 6.95244 74.8769C6.95538 74.8309 6.97032 74.7868 6.99558 74.749C7.5075 73.983 8.1186 73.2963 8.81118 72.7078C8.86104 72.6713 8.92224 72.6562 8.98236 72.665C9.04248 72.6744 9.09708 72.7072 9.13518 72.757C9.17322 72.8061 9.19188 72.8691 9.18744 72.9327C9.183 72.9964 9.15576 73.0562 9.11118 73.0997C8.45316 73.6585 7.8726 74.3112 7.38618 75.0388C7.36422 75.0716 7.33512 75.0981 7.30128 75.117C7.2675 75.1352 7.22994 75.1453 7.19178 75.1459Z" fill="black"/>
<path d="M14.7629 74.0207C14.7177 74.0207 14.6733 74.0075 14.635 73.9823C14.5966 73.9565 14.5659 73.9206 14.5462 73.8777C14.5266 73.8349 14.5189 73.787 14.524 73.7404C14.5291 73.6931 14.5468 73.6484 14.5751 73.6112C15.2317 72.7494 15.9464 71.9386 16.7135 71.1851C16.7601 71.1391 16.822 71.1152 16.8856 71.1171C16.9492 71.1196 17.0094 71.1486 17.0528 71.1971C17.0962 71.2462 17.1195 71.3111 17.1172 71.3779C17.1151 71.4447 17.0877 71.5077 17.0411 71.5537C16.29 72.2908 15.5904 73.0833 14.9477 73.9262C14.9255 73.9552 14.8974 73.9785 14.8655 73.9949C14.8335 74.0113 14.7985 74.0201 14.7629 74.0207Z" fill="black"/>
<path d="M0.248919 65.127C0.199839 65.1277 0.151779 65.1126 0.111159 65.0836C0.0705992 65.0546 0.0393394 65.0136 0.0216994 64.9658C0.00405939 64.9173 0.000820309 64.865 0.0125203 64.8152C0.0241603 64.7648 0.0501397 64.7201 0.0869197 64.686C0.6265 64.1682 1.19746 63.6875 1.79632 63.2478C1.84846 63.2093 1.91302 63.1942 1.97572 63.2062C2.03836 63.2175 2.09404 63.2553 2.13052 63.3101C2.16694 63.3649 2.18116 63.4323 2.17 63.4985C2.15884 63.564 2.12326 63.6226 2.07112 63.661C1.48858 64.0888 0.933399 64.5563 0.409119 65.0609C0.365559 65.1031 0.308319 65.127 0.248919 65.127Z" fill="black"/>
<path d="M23.94 28.253C22.8636 29.1619 21.9068 30.2169 21.0948 31.3904C20.8992 31.6739 20.703 32.0015 20.7516 32.3473C21.5316 32.1697 22.1226 31.5334 22.7316 30.9972C24.05 29.8434 25.6273 29.0627 27.3138 28.7292C27.5208 28.6883 27.7338 28.6517 27.9138 28.5295C28.6302 28.0331 27.5682 27.3615 27.1452 27.1435C26.5362 26.8336 25.722 27.1183 25.1574 27.41C24.7234 27.6431 24.3151 27.9258 23.94 28.253Z" fill="#126535"/>
<path d="M48.8525 56.9433C48.8039 56.944 48.7553 56.9288 48.7151 56.8999C48.6743 56.8709 48.6431 56.8299 48.6257 56.7821C48.6077 56.7335 48.6047 56.6813 48.6161 56.6315C48.6281 56.5811 48.6539 56.5364 48.6905 56.5023C49.4867 55.7356 50.3105 54.9425 50.8871 53.9754C51.5093 52.9309 51.7331 51.7862 51.5015 50.8349C51.4859 50.77 51.4949 50.7013 51.5273 50.6433C51.5597 50.586 51.6125 50.5444 51.6743 50.5274C51.7361 50.511 51.8015 50.5205 51.8561 50.5545C51.9107 50.5885 51.9509 50.644 51.9665 50.7089C52.2305 51.7937 51.9857 53.0814 51.2939 54.2425C50.6831 55.2675 49.8347 56.084 49.0139 56.8734C48.9707 56.9169 48.9131 56.9421 48.8525 56.9433Z" fill="black"/>
<path d="M44.1385 61.3993C44.0917 61.3993 44.0461 61.3848 44.0071 61.3577C43.9675 61.3313 43.9369 61.2928 43.9183 61.2475C43.8997 61.2028 43.8937 61.153 43.9015 61.1045C43.9099 61.056 43.9309 61.0112 43.9627 60.9753L45.0067 59.8016C45.0463 59.7575 45.1003 59.7298 45.1573 59.7235C45.2149 59.7172 45.2725 59.7336 45.3199 59.7683C45.3673 59.8035 45.4009 59.8552 45.4147 59.9144C45.4285 59.973 45.4213 60.0354 45.3949 60.0895L45.0859 60.7151C45.0715 60.7441 45.0517 60.7706 45.0277 60.792C45.0031 60.8134 44.9755 60.8292 44.9455 60.8393C44.9155 60.8493 44.8837 60.8531 44.8519 60.85C44.8207 60.8474 44.7901 60.838 44.7619 60.8229H44.7577L44.3137 61.3218C44.2915 61.3464 44.2639 61.3659 44.2339 61.3792C44.2039 61.3924 44.1715 61.3993 44.1385 61.3993Z" fill="black"/>
<path d="M79.2362 5.31213C79.1732 5.31219 79.1119 5.28593 79.0669 5.23905C78.2767 4.41596 77.588 3.49187 77.0168 2.48847C76.9844 2.43108 76.9747 2.36241 76.9903 2.29758C77.0059 2.23282 77.0456 2.17713 77.1002 2.14292C77.1548 2.10865 77.2201 2.09863 77.2819 2.11495C77.3437 2.13133 77.3966 2.17278 77.429 2.23017C77.9798 3.19722 78.6433 4.08785 79.4053 4.88121C79.4395 4.91637 79.4623 4.96129 79.4719 5.01024C79.4809 5.05919 79.4767 5.10996 79.4581 5.15614C79.4401 5.20232 79.4095 5.24182 79.3699 5.26961C79.3303 5.29733 79.2842 5.31213 79.2362 5.31213Z" fill="black"/>
<path d="M39.6983 41.6293C39.8237 41.8183 39.9522 42.0212 39.9816 42.2511C40.0242 42.5774 39.8616 42.8924 39.6816 43.1608C39.0024 44.1632 38.028 44.8908 37.0704 45.597C33.5736 48.1712 30.0407 50.6918 26.4948 53.1917C24.9078 54.3106 23.2728 55.4471 21.4115 55.907C21.6257 54.7837 22.3116 53.828 22.9878 52.9346C26.6232 48.1385 30.7133 43.7303 35.1077 39.692C35.7677 39.0828 36.5843 38.3892 37.5263 38.6664C38.2493 38.8793 38.3064 39.4728 38.676 40.0581C39.0066 40.5873 39.3569 41.1058 39.6983 41.6293Z" fill="#BD0000"/>
</svg>
